<?xml version="1.0" encoding="UTF-8"?>
<svg xmlns="http://www.w3.org/2000/svg" viewBox="0 0 27.93 15.22">
  <defs>
    <style>.d{fill:#f58a07;}</style>
  </defs>
  <g id="a"></g>
  <g id="b">
    <g id="c">
      <path class="d" d="M24.05,.1V15.13c0,.05-.04,.1-.1,.1h-1.46c-.05,0-.1-.04-.1-.1V1.73c0-.05-.04-.1-.1-.1h-1.37c-.05,0-.1-.04-.1-.1l-.02-1.44c0-.05,.04-.1,.1-.1h3.05c.05,0,.1,.04,.1,.1Z"></path>
      <path class="d" d="M20.06,.1l-.89,15.03c0,.05-.05,.09-.1,.09h-1.46c-.06,0-.1-.05-.1-.1l.89-13.38c0-.06-.04-.1-.1-.1h-4.03c-.05,0-.1-.04-.1-.1V.1c0-.05,.04-.1,.09-.1h5.69c.06,0,.1,.05,.1,.1Z"></path>
      <path class="d" d="M27.93,.1V15.13c0,.05-.04,.1-.1,.1h-1.46c-.05,0-.1-.04-.1-.1V1.73c0-.05-.04-.1-.1-.1h-1.37c-.05,0-.1-.04-.1-.1l-.02-1.44c0-.05,.04-.1,.1-.1h3.05c.05,0,.1,.04,.1,.1Z"></path>
      <path class="d" d="M10.56,5.12V15.13c0,.05-.04,.1-.1,.1h-1.47c-.05,0-.1-.04-.1-.1V5.09c0-.52-.24-.97-.72-.97h-.01c-.48,0-.72,.45-.72,.97v7.71c0,1.61-.79,2.42-2.38,2.42s-2.38-.81-2.38-2.42V2.84c0-.05,.04-.1,.1-.1l1.47,.03c.05,0,.09,.04,.09,.1V12.8c0,.52,.24,.78,.72,.78h.01c.48,0,.71-.26,.71-.78V5.1c0-1.61,.8-2.68,2.38-2.68s2.39,1.08,2.39,2.69Z"></path>
      <g>
        <path class="d" d="M1.56,15.22H.1c-.05,0-.1-.04-.1-.1V.1C0,.04,.04,0,.1,0H1.56c.05,0,.1,.04,.1,.1V15.13c0,.05-.04,.1-.1,.1Z"></path>
        <path class="d" d="M2.78,0h1.46c.05,0,.1,.04,.1,.1V1.55c0,.05-.04,.1-.1,.1h-1.46c-.05,0-.1-.04-.1-.1V.1C2.69,.04,2.73,0,2.78,0Z"></path>
        <path class="d" d="M11.67,0h1.46c.05,0,.1,.04,.1,.1V8.84l1.74-5.05s.05-.07,.09-.07h1.57c.07,0,.11,.07,.09,.13l-2.13,5.58s0,.05,0,.07l2.13,5.58c.02,.06-.02,.13-.09,.13h-1.57s-.08-.03-.09-.07l-1.74-5.04v5.01c0,.05-.04,.1-.1,.1h-1.46c-.05,0-.1-.04-.1-.1V.1c0-.05,.04-.1,.1-.1Z"></path>
      </g>
    </g>
  </g>
</svg>
